<?xml version="1.0" encoding="UTF-8" standalone="no"?>
<svg xmlns:rdf="http://www.w3.org/1999/02/22-rdf-syntax-ns#" xmlns="http://www.w3.org/2000/svg" height="700" width="1336" version="1.1" xmlns:cc="http://creativecommons.org/ns#" xmlns:dc="http://purl.org/dc/elements/1.1/" viewBox="0 0 1068.8 560">
 <metadata>
  <rdf:RDF>
   <cc:Work rdf:about="">
    <dc:format>image/svg+xml</dc:format>
    <dc:type rdf:resource="http://purl.org/dc/dcmitype/StillImage"/>
    <dc:title/>
   </cc:Work>
  </rdf:RDF>
 </metadata>
 <path d="m395.63 306.45v-143.93h90.133v26.387h-62.117v32.887h56.23v24.973h-56.23v33.289h62.117v26.391h-90.133" fill="#31316d"/>
 <path d="m503.63 306.45v-143.93h90.137v26.387h-62.121v32.887h56.23v24.973h-56.23v33.289h62.121v26.391h-90.137" fill="#31316d"/>
 <path d="m705 306.45-65.363-102.11v102.11h-28.016v-143.93h34.914l59.887 95.207v-95.207h28.016v143.93h-29.438" fill="#31316d"/>
 <path d="m823.96 245.15c-0.40235-9.9492-6.8984-19.691-22.328-19.691-14.008 0-21.723 10.555-22.332 19.691zm25.176 32.684c-5.0742 17.254-20.91 31.668-45.473 31.668-27.406 0-51.562-19.691-51.562-53.391 0-31.871 23.547-52.578 49.125-52.578 30.855 0 49.332 19.691 49.332 51.766 0 3.8594-0.40625 7.918-0.40625 8.3242h-71.457c0.60547 13.195 11.773 22.734 25.172 22.734 12.586 0 19.488-6.293 22.738-15.223l22.531 6.6992" fill="#31316d"/>
 <path d="m904.14 206.57h20.094v23.957h-20.094v41.82c0 8.7266 4.0586 11.57 11.773 11.57 3.2461 0 6.9023-0.40625 8.3203-0.8125v22.332c-2.4336 1.0117-7.3047 2.4336-15.223 2.4336-19.488 0-31.668-11.57-31.668-30.855v-46.488h-18.07v-23.957h5.0781c10.555 0 15.426-6.8984 15.426-15.832v-14.008h24.363v29.84" fill="#31316d"/>
 <path d="m395.69 387.45v-35.453h21.551v4.5508h-16.652v10.902h15.102v4.5976h-15.102v10.855h16.652v4.5469h-21.551" fill="#31316d"/>
 <path d="m439.44 372.95c-0.0976-3.4492-2.3476-6.1524-6.6016-6.1524-3.9492 0-6.3477 3.0547-6.5508 6.1524zm4.75 7.6523c-1.3476 4.25-5.1992 7.5977-10.801 7.5977-6.4492 0-12.102-4.6992-12.102-12.848 0-7.5547 5.4531-12.703 11.504-12.703 7.3984 0 11.551 5.1016 11.551 12.602 0 0.60156-0.0508 1.1992-0.10157 1.5h-18.102c0.10156 4.3008 3.1992 7.3008 7.25 7.3008 3.9024 0 5.8516-2.1524 6.75-4.8516l4.0508 1.4023" fill="#31316d"/>
 <path d="m452.34 379.7c0.30078 2.5 2.1992 4.5 5.6016 4.5 2.6484 0 4.1016-1.5 4.1016-3.1992 0-1.5-1.1016-2.6484-3.1016-3.1016l-4.1016-0.89843c-3.75-0.80078-6-3.3516-6-6.75 0-4.1016 3.8516-7.6016 8.5508-7.6016 6.6016 0 8.6524 4.3008 9.1524 6.4492l-4.1524 1.5508c-0.19922-1.25-1.1992-4-5-4-2.3984 0-4 1.5508-4 3.2031 0 1.4453 0.89844 2.5 2.75 2.8984l3.8984 0.85156c4.3516 0.94922 6.6523 3.5977 6.6523 7.1484 0 3.4023-2.8516 7.4492-8.8008 7.4492-6.6016 0-9.4023-4.25-9.8008-7l4.25-1.5" fill="#31316d"/>
 <path d="m479.24 363.4h5.1992v4.25h-5.1992v12.5c0 2.2031 0.89844 3.3008 3.3477 3.3008 0.60156 0 1.4492-0.0977 1.8516-0.19922v4c-0.40234 0.15234-1.6016 0.44922-3.1992 0.44922-4.1016 0-6.7031-2.5-6.7031-6.8477v-13.203h-4.5977v-4.25h1.2969c2.6016 0 3.7031-1.6016 3.7031-3.6992v-3.9024h4.3008v7.6016" fill="#31316d"/>
 <path d="m495.34 387.45h-4.6484v-24.051h4.6484zm-4.6484 0zm2.2969-36.551c1.9023 0 3.4023 1.5 3.4023 3.3984 0 1.8516-1.5 3.3516-3.4023 3.3516-1.8477 0-3.3477-1.5-3.3477-3.3516 0-1.8984 1.5-3.3984 3.3477-3.3984" fill="#31316d"/>
 <path d="m539.34 387.45v-15.75h-18.102v15.75h-4.8984v-35.453h4.8984v15.152h18.102v-15.152h4.9023v35.453h-4.9023" fill="#31316d"/>
 <path d="m566.64 377.15v-1.0976l-7.3516 1.0976c-2 0.30079-3.5 1.4531-3.5 3.6016 0 1.8008 1.5 3.5 3.9023 3.5 3.8477 0 6.9492-1.8516 6.9492-7.1016zm-8.3516-3.4492 6.5-0.94922c1.4492-0.20313 1.8516-0.95313 1.8516-1.8008 0-2.3516-1.5508-4.3008-5.1992-4.3008-3.3008 0-5.1523 2.0508-5.4531 4.8516l-4.5-1.0508c0.5-4.6016 4.6523-7.8008 9.8516-7.8008 7.1992 0 10 4.1016 10 8.8008v12.051c0 2.1016 0.19922 3.3516 0.30078 3.9492h-4.6016c-0.0977-0.59766-0.25-1.5-0.25-3.25-1.0508 1.7031-3.4492 4-7.75 4-4.8984 0-8.0508-3.3984-8.0508-7.1992 0-4.3008 3.1523-6.6992 7.3008-7.3008" fill="#31316d"/>
 <path d="m591.99 368.15c-0.69922-0.10156-1.3984-0.14843-2.0469-0.14843-3.9531 0-6.6016 2.1016-6.6016 7.3984v12.051h-4.6992v-24.051h4.5977v4.1992c1.75-3.6992 4.75-4.5976 7.2031-4.5976 0.64844 0 1.2969 0.0976 1.5469 0.14843v5" fill="#31316d"/>
 <path d="m601.64 387.45h-4.6523v-24.051h4.6523zm-4.6523 0zm2.3008-36.551c1.9023 0 3.4023 1.5 3.4023 3.3984 0 1.8516-1.5 3.3516-3.4023 3.3516-1.8516 0-3.3516-1.5-3.3516-3.3516 0-1.8984 1.5-3.3984 3.3516-3.3984" fill="#31316d"/>
 <path d="m619.49 383.95c4.3008 0 6.9531-3.75 6.9531-8.6992 0-4.9531-2.6016-8.3516-6.9023-8.3516-4.3008 0-7.1016 3.5-7.1016 8.4531 0 4.9492 2.5508 8.5977 7.0508 8.5977zm7-0.14844c-1.1484 2.3008-3.6992 4.3008-7.4492 4.3008-7.0508 0-11.402-5.6016-11.402-12.75 0-6.8047 4.6016-12.602 11.402-12.602 4.25 0 6.5508 2.0976 7.3516 4.0469v-15.551h4.6484v31.754c0 2.3008 0.19922 4.0508 0.25 4.4492h-4.5508c-0.0977-0.54688-0.25-1.7969-0.25-3.25v-0.39844" fill="#31316d"/>
 <path d="m647.54 388.2c-5.5977 0-9-4.1992-9-9.6484v-15.152h4.6992v14.453c0 3.2969 1.5 6.1992 5.4531 6.1992 3.7969 0 5.6992-2.5 5.6992-6.1524v-14.5h4.6992v19.602c0 1.9023 0.14844 3.6016 0.25 4.4492h-4.5c-0.10156-0.54688-0.19922-1.8984-0.19922-2.8984-1.3008 2.5-4.3008 3.6484-7.1016 3.6484" fill="#31316d"/>
 <path d="m669.09 379.7c0.30078 2.5 2.1992 4.5 5.6016 4.5 2.6484 0 4.0977-1.5 4.0977-3.1992 0-1.5-1.0977-2.6484-3.0977-3.1016l-4.1016-0.89843c-3.75-0.80078-6.0039-3.3516-6.0039-6.75 0-4.1016 3.8555-7.6016 8.5547-7.6016 6.5977 0 8.6484 4.3008 9.1484 6.4492l-4.1484 1.5508c-0.19922-1.25-1.1992-4-5-4-2.4023 0-4 1.5508-4 3.2031 0 1.4453 0.89844 2.5 2.75 2.8984l3.8984 0.85156c4.3516 0.94922 6.6523 3.5977 6.6523 7.1484 0 3.4023-2.8516 7.4492-8.8008 7.4492-6.6016 0-9.4023-4.25-9.8047-7l4.2539-1.5" fill="#31316d"/>
 <path d="m705.64 372.95c-0.10156-3.4492-2.3516-6.1524-6.6016-6.1524-3.9492 0-6.3477 3.0547-6.5508 6.1524zm4.75 7.6523c-1.3516 4.25-5.1992 7.5977-10.801 7.5977-6.4492 0-12.102-4.6992-12.102-12.848 0-7.5547 5.4531-12.703 11.5-12.703 7.4023 0 11.551 5.1016 11.551 12.602 0 0.60156-0.0508 1.1992-0.0977 1.5h-18.102c0.10156 4.3008 3.1992 7.3008 7.25 7.3008 3.8984 0 5.8516-2.1524 6.75-4.8516l4.0508 1.4023" fill="#31316d"/>
 <path d="m731.34 350.8c1.9024 0 3.4024 1.5 3.4024 3.4024 0 1.8476-1.5 3.3476-3.4024 3.3476-1.8476 0-3.3476-1.5-3.3476-3.3476 0-1.9024 1.5-3.4024 3.3476-3.4024zm-2.3008 12.602h4.7031v26.852c0 4.3516-2.5 7.4492-6.6524 7.4492-1.8008 0-2.5-0.25-2.8008-0.34766v-3.9492c0.25 0.0469 0.80078 0.14844 1.5 0.14844 2.4531 0 3.25-1.3008 3.25-3.5v-26.652" fill="#31316d"/>
 <path d="m755.89 377.15v-1.0976l-7.3516 1.0976c-2 0.30079-3.5 1.4531-3.5 3.6016 0 1.8008 1.5 3.5 3.8984 3.5 3.8516 0 6.9531-1.8516 6.9531-7.1016zm-8.3516-3.4492 6.5-0.94922c1.4492-0.20313 1.8516-0.95313 1.8516-1.8008 0-2.3516-1.5547-4.3008-5.1992-4.3008-3.3008 0-5.1523 2.0508-5.4531 4.8516l-4.5-1.0508c0.5-4.6016 4.6523-7.8008 9.8476-7.8008 7.2031 0 10.004 4.1016 10.004 8.8008v12.051c0 2.1016 0.19922 3.3516 0.30078 3.9492h-4.6016c-0.0977-0.59766-0.25-1.5-0.25-3.25-1.0508 1.7031-3.4531 4-7.75 4-4.8984 0-8.0508-3.3984-8.0508-7.1992 0-4.3008 3.1523-6.6992 7.3008-7.3008" fill="#31316d"/>
 <path d="m793.64 356.55v30.902h-4.9023v-30.902h-11.852v-4.5508h28.602v4.5508h-11.848" fill="#31316d"/>
 <path d="m821.44 372.95c-0.10156-3.4492-2.3516-6.1524-6.6055-6.1524-3.9453 0-6.3476 3.0547-6.5469 6.1524zm4.75 7.6523c-1.3516 4.25-5.2031 7.5977-10.801 7.5977-6.4531 0-12.105-4.6992-12.105-12.848 0-7.5547 5.4531-12.703 11.504-12.703 7.4023 0 11.551 5.1016 11.551 12.602 0 0.60156-0.0508 1.1992-0.10156 1.5h-18.098c0.0977 4.3008 3.1953 7.3008 7.25 7.3008 3.8984 0 5.8477-2.1524 6.75-4.8516l4.0508 1.4023" fill="#31316d"/>
 <path d="m846.49 377.15v-1.0976l-7.3477 1.0976c-2 0.30079-3.5 1.4531-3.5 3.6016 0 1.8008 1.5 3.5 3.8945 3.5 3.8555 0 6.9531-1.8516 6.9531-7.1016zm-8.3477-3.4492 6.5-0.94922c1.4453-0.20313 1.8477-0.95313 1.8477-1.8008 0-2.3516-1.5508-4.3008-5.1992-4.3008-3.3008 0-5.1484 2.0508-5.4531 4.8516l-4.5-1.0508c0.5-4.6016 4.6524-7.8008 9.8516-7.8008 7.2031 0 10.004 4.1016 10.004 8.8008v12.051c0 2.1016 0.19922 3.3516 0.29688 3.9492h-4.5977c-0.10156-0.59766-0.25-1.5-0.25-3.25-1.0547 1.7031-3.4531 4-7.75 4-4.9023 0-8.0547-3.3984-8.0547-7.1992 0-4.3008 3.1524-6.6992 7.3047-7.3008" fill="#31316d"/>
 <path d="m868.34 383.95c4.3047 0 6.9492-3.75 6.9492-8.6992 0-4.9531-2.5976-8.3516-6.8984-8.3516s-7.1016 3.5-7.1016 8.4531c0 4.9492 2.5508 8.5977 7.0508 8.5977zm7-0.14844c-1.1484 2.3008-3.6953 4.3008-7.4492 4.3008-7.0508 0-11.398-5.6016-11.398-12.75 0-6.8047 4.5976-12.602 11.398-12.602 4.2539 0 6.5508 2.0976 7.3516 4.0469v-15.551h4.6523v31.754c0 2.3008 0.19531 4.0508 0.25 4.4492h-4.5547c-0.0977-0.54688-0.25-1.7969-0.25-3.25v-0.39844" fill="#31316d"/>
 <path d="m896.39 388.2c-5.6016 0-9-4.1992-9-9.6484v-15.152h4.6992v14.453c0 3.2969 1.5 6.1992 5.4492 6.1992 3.8008 0 5.7031-2.5 5.7031-6.1524v-14.5h4.6992v19.602c0 1.9023 0.14843 3.6016 0.25 4.4492h-4.5c-0.10157-0.54688-0.19922-1.8984-0.19922-2.8984-1.3008 2.5-4.3008 3.6484-7.1016 3.6484" fill="#31316d"/>
 <path d="m917.94 379.7c0.30078 2.5 2.1992 4.5 5.5976 4.5 2.6524 0 4.1016-1.5 4.1016-3.1992 0-1.5-1.1016-2.6484-3.1016-3.1016l-4.0976-0.89843c-3.75-0.80078-6-3.3516-6-6.75 0-4.1016 3.8476-7.6016 8.5508-7.6016 6.5976 0 8.6484 4.3008 9.1484 6.4492l-4.1484 1.5508c-0.20313-1.25-1.2031-4-5-4-2.4024 0-4 1.5508-4 3.2031 0 1.4453 0.89844 2.5 2.75 2.8984l3.8984 0.85156c4.3516 0.94922 6.6484 3.5977 6.6484 7.1484 0 3.4023-2.8476 7.4492-8.7969 7.4492-6.6016 0-9.4024-4.25-9.8008-7l4.25-1.5" fill="#31316d"/>
 <path d="m954.49 372.95c-0.0977-3.4492-2.3477-6.1524-6.6016-6.1524-3.9492 0-6.3516 3.0547-6.5508 6.1524zm4.75 7.6523c-1.3477 4.25-5.2031 7.5977-10.801 7.5977-6.4492 0-12.102-4.6992-12.102-12.848 0-7.5547 5.4492-12.703 11.5-12.703 7.4024 0 11.555 5.1016 11.555 12.602 0 0.60156-0.0547 1.1992-0.10156 1.5h-18.102c0.0976 4.3008 3.1992 7.3008 7.25 7.3008 3.8984 0 5.8476-2.1524 6.75-4.8516l4.0508 1.4023" fill="#31316d"/>
 <path d="m402.44 436h12.199l-6.1484-15.902zm13.949 4.5508h-15.699l-3.75 9.8984h-5.25l14.102-35.453h5.6484l14.102 35.453h-5.3008l-3.8516-9.8984" fill="#31316d"/>
 <path d="m434.49 450.45h-4.7031v-24.051h4.6016v3.4492c1.75-3 4.6016-4.1484 7.4024-4.1484 5.75 0 8.5976 4.1484 8.5976 9.5v15.25h-4.6992v-14.449c0-3.3516-1.3984-6.0508-5.6016-6.0508-3.6992 0-5.5977 2.9492-5.5977 6.6016v13.898" fill="#31316d"/>
 <path d="m467.74 446.95c4.2969 0 6.9492-3.75 6.9492-8.6992 0-4.9531-2.6016-8.3516-6.9023-8.3516-4.2969 0-7.0977 3.5-7.0977 8.4531 0 4.9492 2.5508 8.5977 7.0508 8.5977zm7-0.14844c-1.1523 2.3008-3.7031 4.3008-7.4531 4.3008-7.0469 0-11.398-5.6016-11.398-12.75 0-6.8047 4.6016-12.602 11.398-12.602 4.25 0 6.5508 2.0976 7.3516 4.0469v-15.551h4.6524v31.754c0 2.3008 0.19921 4.0508 0.25 4.4492h-4.5508c-0.10156-0.54688-0.25-1.7969-0.25-3.25v-0.39844" fill="#31316d"/>
 <path d="m487.29 450.45v-24.051h4.5v3.1992c1.5-2.6484 4.5-3.8984 7.3008-3.8984 3 0 5.9023 1.4492 7.2031 4.5508 1.8984-3.4531 5-4.5508 8.0508-4.5508 4.1992 0 8.3008 2.8476 8.3008 9.1523v15.598h-4.6524v-15.098c0-3.1523-1.5508-5.5039-5.1016-5.5039-3.2969 0-5.5508 2.6016-5.5508 6.0508v14.551h-4.6992v-15.098c0-3.1016-1.5-5.5039-5.1016-5.5039-3.3477 0-5.5977 2.5-5.5977 6.1016v14.5h-4.6523" fill="#31316d"/>
 <path d="m546.34 435.95c-0.0977-3.4492-2.3477-6.1524-6.5977-6.1524-3.9531 0-6.3516 3.0547-6.5508 6.1524zm4.75 7.6523c-1.3477 4.25-5.1992 7.5977-10.801 7.5977-6.4492 0-12.098-4.6992-12.098-12.848 0-7.5547 5.4492-12.703 11.5-12.703 7.3984 0 11.551 5.1016 11.551 12.602 0 0.60156-0.0508 1.1992-0.10156 1.5h-18.102c0.10156 4.3008 3.1992 7.3008 7.25 7.3008 3.9023 0 5.8516-2.1524 6.75-4.8516l4.0508 1.4023" fill="#31316d"/>
 <path d="m559.24 442.7c0.30078 2.5 2.2031 4.5 5.6016 4.5 2.6484 0 4.1016-1.5 4.1016-3.1992 0-1.5-1.1016-2.6484-3.1016-3.1016l-4.1016-0.89843c-3.75-0.80078-6-3.3516-6-6.75 0-4.1016 3.8516-7.6016 8.5508-7.6016 6.6016 0 8.6523 4.3008 9.1523 6.4492l-4.1523 1.5508c-0.19922-1.25-1.1992-4-5-4-2.3984 0-4 1.5508-4 3.2031 0 1.4453 0.90234 2.5 2.75 2.8984l3.9023 0.85156c4.3477 0.94922 6.6484 3.5977 6.6484 7.1484 0 3.4023-2.8516 7.4492-8.8008 7.4492-6.5977 0-9.3984-4.25-9.8008-7l4.25-1.5" fill="#31316d"/>
 <path d="m584.49 450.45h-4.6484v-24.051h4.6484zm-4.6484 0zm2.3008-36.551c1.8984 0 3.3984 1.5 3.3984 3.3984 0 1.8516-1.5 3.3516-3.3984 3.3516-1.8516 0-3.3516-1.5-3.3516-3.3516 0-1.8984 1.5-3.3984 3.3516-3.3984" fill="#31316d"/>
 <path d="m602.34 446.95c4.3008 0 6.9492-3.75 6.9492-8.6992 0-4.9531-2.5977-8.3516-6.8984-8.3516-4.3008 0-7.1016 3.5-7.1016 8.4531 0 4.9492 2.5508 8.5977 7.0508 8.5977zm7-0.14844c-1.1484 2.3008-3.6992 4.3008-7.4492 4.3008-7.0508 0-11.402-5.6016-11.402-12.75 0-6.8047 4.6016-12.602 11.402-12.602 4.25 0 6.5508 2.0976 7.3477 4.0469v-15.551h4.6523v31.754c0 2.3008 0.19922 4.0508 0.25 4.4492h-4.5508c-0.10156-0.54688-0.25-1.7969-0.25-3.25v-0.39844" fill="#31316d"/>
 <path d="m638.09 435.95c-0.10156-3.4492-2.3516-6.1524-6.6016-6.1524-3.9492 0-6.3477 3.0547-6.5508 6.1524zm4.75 7.6523c-1.3516 4.25-5.1992 7.5977-10.801 7.5977-6.4492 0-12.102-4.6992-12.102-12.848 0-7.5547 5.4531-12.703 11.5-12.703 7.4023 0 11.551 5.1016 11.551 12.602 0 0.60156-0.0469 1.1992-0.0977 1.5h-18.102c0.10156 4.3008 3.1992 7.3008 7.25 7.3008 3.9023 0 5.8516-2.1524 6.75-4.8516l4.0508 1.4023" fill="#31316d"/>
 <path d="m659.49 450.45h-4.75l-9.75-24.051h5.3008l6.8516 18.551 6.8984-18.551h5.0508l-9.6016 24.051" fill="#31316d"/>
 <path d="m690.64 438.4c0-5.5469-3.5-8.5508-7.5-8.5508s-7.5 3.0039-7.5 8.5508c0 5.6016 3.5 8.6016 7.5 8.6016s7.5-3 7.5-8.6016zm0.44922-21.051c0 3.6992-2.1016 5.4492-4.8516 5.4492-1.2969 0-2.3477-0.5-3.2969-1.0976l-0.70312-0.45313c-0.64844-0.39844-1.1992-0.69922-1.8477-0.69922-0.94922 0-1.4492 0.5-1.4492 2.1524h-3.6016v-0.75c0-3.7031 2.1484-5.4531 4.8984-5.4531 1.3516 0 2.4023 0.5 3.3516 1.1016l0.69922 0.44922c0.65234 0.40235 1.1523 0.69922 1.8008 0.69922 1 0 1.4492-0.54687 1.4492-2.1484h3.5508zm4.3516 21.051c0 7.3516-5.1016 12.801-12.301 12.801-7.1992 0-12.305-5.4492-12.305-12.801 0-7.3008 5.1055-12.75 12.305-12.75 7.1992 0 12.301 5.4492 12.301 12.75" fill="#31316d"/>
 <path d="m714.79 431.15c-0.69922-0.10156-1.3984-0.14843-2.0508-0.14843-3.9492 0-6.5977 2.1016-6.5977 7.3984v12.051h-4.7031v-24.051h4.6016v4.1992c1.75-3.6992 4.75-4.5976 7.1992-4.5976 0.65234 0 1.3008 0.0976 1.5508 0.14843v5" fill="#31316d"/>
 <path d="m731.09 436.55 10.453 13.898h-5.8984l-7.8516-10.598-3.3516 3.3477v7.25h-4.6524v-36.203h4.6524v22.805l10.398-10.652h6.5039l-10.254 10.152" fill="#31316d"/>
 <path d="m144 180.28v35.879l35.883-35.879h-35.883" fill="#00b140"/>
 <path d="m144 252.04v35.883l35.883-35.883h-35.883" fill="#00b140"/>
 <path d="m215.75 180.28-35.875 35.875h35.883v-0.004l35.879-35.875h-35.887v0.004" fill="#00b140"/>
 <path d="m251.64 252.04h-35.887v0.008l-35.875 35.879h35.883v-0.008l35.879-35.879" fill="#00b140"/>
 <path d="m287.51 180.28-35.879 35.875h35.883v-0.004l35.879-35.875h-35.883v0.004" fill="#00b140"/>
 <path d="m287.51 252.04v0.008l-35.879 35.879h35.883v-0.008l35.879-35.879h-35.883" fill="#00b140"/>
 <path d="m251.63 252.04v0.004l-35.879 35.879h-35.871v-0.004l35.875-35.875h0.004v-35.887h35.871v35.883h0.008zm35.883 0.004v-35.887h35.879v-35.879l-35.883 35.879h-35.871v-0.004l35.859-35.859h0.0156v-35.887h-35.883v35.875l-35.875 35.875h-35.875v-0.004l35.859-35.859h0.0195v-35.887h-35.883v35.875l-35.879 35.875h35.879v35.883h0.004-0.004v0.004l-35.879 35.879h35.879v35.883l35.883 0.004v-35.887h35.871v35.883l35.883 0.004v-35.887h35.879v-35.883l-35.883 35.883h-35.871v-0.004l35.875-35.875" fill="#31316d"/>
</svg>
